HIERARCHY
ROOT hip
{
  OFFSET 0.00112043 5.09927 -9.65472
  CHANNELS 6 Xposition Yposition Zposition Zrotation Xrotation Yrotation
  JOINT abdomen
  {
    OFFSET 0 -1.186 -1.5018
    CHANNELS 3 Zrotation Xrotation Yrotation
    JOINT abdomen2
    {
      OFFSET 0 9.964 0.2134
      CHANNELS 3 Zrotation Xrotation Yrotation
      JOINT chest
      {
        OFFSET 0 13.134 -3.2573
        CHANNELS 3 Zrotation Xrotation Yrotation
        JOINT neck
        {
          OFFSET 0 20.686 -1.6905
          CHANNELS 3 Zrotation Xrotation Yrotation
          JOINT head
          {
            OFFSET 0 7.238 -0.1237
            CHANNELS 3 Zrotation Xrotation Yrotation
            End Site
            {
              OFFSET 0 0 0
            }
          }
        }
        JOINT lCollar
        {
          OFFSET 1.7069 20.075 5.0056
          CHANNELS 3 Zrotation Xrotation Yrotation
          JOINT lShldr
          {
            OFFSET 13.6458 -0.047 -4.849
            CHANNELS 3 Zrotation Xrotation Yrotation
            JOINT lForeArm
            {
              OFFSET 28.3255 -0.9759 2.2888
              CHANNELS 3 Zrotation Xrotation Yrotation
              JOINT lHand
              {
                OFFSET 22.1583 -0.53 10.8316
                CHANNELS 3 Zrotation Xrotation Yrotation
                JOINT lThumb1
                {
                  OFFSET 0.786 0.112 2.5817
                  CHANNELS 3 Zrotation Xrotation Yrotation
                  JOINT lThumb2
                  {
                    OFFSET 0.3601 -0.878 4.2331
                    CHANNELS 3 Zrotation Xrotation Yrotation
                    JOINT lThumb2_End
                    {
                      OFFSET 1.8127 -1.216 2.2227
                      CHANNELS 3 Zrotation Xrotation Yrotation
                      End Site
                      {
                        OFFSET 0.0181 -0.0122 0.0222
                      }
                    }
                  }
                }
                JOINT lCarpal1
                {
                  OFFSET 0.9571 1.114 1.7695
                  CHANNELS 3 Zrotation Xrotation Yrotation
                  JOINT lIndex1
                  {
                    OFFSET 4.1246 0.487 4.1451
                    CHANNELS 3 Zrotation Xrotation Yrotation
                    JOINT lIndex2
                    {
                      OFFSET 3.4052 -1.454 2.7682
                      CHANNELS 3 Zrotation Xrotation Yrotation
                      JOINT lIndex2_End
                      {
                        OFFSET 1.4531 -1.795 1.2713
                        CHANNELS 3 Zrotation Xrotation Yrotation
                        End Site
                        {
                          OFFSET 0.0145 -0.0179 0.0127
                        }
                      }
                    }
                  }
                  JOINT lMid1
                  {
                    OFFSET 5.6954 0.21 2.1184
                    CHANNELS 3 Zrotation Xrotation Yrotation
                    JOINT lMid2
                    {
                      OFFSET 3.9766 -1.54 2.3863
                      CHANNELS 3 Zrotation Xrotation Yrotation
                      JOINT lMid2_End
                      {
                        OFFSET 1.4042 -1.926 1.125
                        CHANNELS 3 Zrotation Xrotation Yrotation
                        End Site
                        {
                          OFFSET 0.014 -0.0193 0.0113
                        }
                      }
                    }
                  }
                }
                JOINT lCarpal2
                {
                  OFFSET 2.0956 0.66 -0.3894
                  CHANNELS 3 Zrotation Xrotation Yrotation
                  JOINT lRing1
                  {
                    OFFSET 5.0395 -0.09 2.4971
                    CHANNELS 3 Zrotation Xrotation Yrotation
                    JOINT lRing2
                    {
                      OFFSET 3.7921 -1.552 1.4806
                      CHANNELS 3 Zrotation Xrotation Yrotation
                      JOINT lRing2_End
                      {
                        OFFSET 1.4655 -1.808 0.9609
                        CHANNELS 3 Zrotation Xrotation Yrotation
                        End Site
                        {
                          OFFSET 0.0147 -0.0181 0.0096
                        }
                      }
                    }
                  }
                  JOINT lPinky1
                  {
                    OFFSET 4.9141 -1.269 0.3591
                    CHANNELS 3 Zrotation Xrotation Yrotation
                    JOINT lPinky2
                    {
                      OFFSET 3.1477 -1.685 0.8462
                      CHANNELS 3 Zrotation Xrotation Yrotation
                      JOINT lPinky2_End
                      {
                        OFFSET 0.8055 -1.585 0.7955
                        CHANNELS 3 Zrotation Xrotation Yrotation
                        End Site
                        {
                          OFFSET 0.0081 -0.0158 0.008
                        }
                      }
                    }
                  }
                }
              }
            }
          }
        }
        JOINT rCollar
        {
          OFFSET -1.7069 20.075 5.0056
          CHANNELS 3 Zrotation Xrotation Yrotation
          JOINT rShldr
          {
            OFFSET -13.6458 -0.047 -4.849
            CHANNELS 3 Zrotation Xrotation Yrotation
            JOINT rForeArm
            {
              OFFSET -28.3255 -0.9759 2.2888
              CHANNELS 3 Zrotation Xrotation Yrotation
              JOINT rHand
              {
                OFFSET -22.1583 -0.53 10.8316
                CHANNELS 3 Zrotation Xrotation Yrotation
                JOINT rThumb1
                {
                  OFFSET -0.786 0.112 2.5817
                  CHANNELS 3 Zrotation Xrotation Yrotation
                  JOINT rThumb2
                  {
                    OFFSET -0.3601 -0.878 4.2331
                    CHANNELS 3 Zrotation Xrotation Yrotation
                    JOINT rThumb2_End
                    {
                      OFFSET -1.8127 -1.216 2.2227
                      CHANNELS 3 Zrotation Xrotation Yrotation
                      End Site
                      {
                        OFFSET -0.0181 -0.0122 0.0222
                      }
                    }
                  }
                }
                JOINT rCarpal1
                {
                  OFFSET -0.9571 1.114 1.7695
                  CHANNELS 3 Zrotation Xrotation Yrotation
                  JOINT rIndex1
                  {
                    OFFSET -4.1246 0.487 4.1451
                    CHANNELS 3 Zrotation Xrotation Yrotation
                    JOINT rIndex2
                    {
                      OFFSET -3.4052 -1.454 2.7682
                      CHANNELS 3 Zrotation Xrotation Yrotation
                      JOINT rIndex2_End
                      {
                        OFFSET -1.4531 -1.795 1.2713
                        CHANNELS 3 Zrotation Xrotation Yrotation
                        End Site
                        {
                          OFFSET -0.0145 -0.018 0.0127
                        }
                      }
                    }
                  }
                  JOINT rMid1
                  {
                    OFFSET -5.6954 0.21 2.1184
                    CHANNELS 3 Zrotation Xrotation Yrotation
                    JOINT rMid2
                    {
                      OFFSET -3.9766 -1.54 2.3863
                      CHANNELS 3 Zrotation Xrotation Yrotation
                      JOINT rMid2_End
                      {
                        OFFSET -1.4042 -1.926 1.125
                        CHANNELS 3 Zrotation Xrotation Yrotation
                        End Site
                        {
                          OFFSET -0.014 -0.0193 0.0113
                        }
                      }
                    }
                  }
                }
                JOINT rCarpal2
                {
                  OFFSET -2.0956 0.66 -0.3894
                  CHANNELS 3 Zrotation Xrotation Yrotation
                  JOINT rRing1
                  {
                    OFFSET -5.0395 -0.09 2.4971
                    CHANNELS 3 Zrotation Xrotation Yrotation
                    JOINT rRing2
                    {
                      OFFSET -3.7921 -1.552 1.4806
                      CHANNELS 3 Zrotation Xrotation Yrotation
                      JOINT rRing2_End
                      {
                        OFFSET -1.4655 -1.808 0.9609
                        CHANNELS 3 Zrotation Xrotation Yrotation
                        End Site
                        {
                          OFFSET -0.0147 -0.0181 0.0096
                        }
                      }
                    }
                  }
                  JOINT rPinky1
                  {
                    OFFSET -4.9141 -1.269 0.3592
                    CHANNELS 3 Zrotation Xrotation Yrotation
                    JOINT rPinky2
                    {
                      OFFSET -3.1477 -1.685 0.8462
                      CHANNELS 3 Zrotation Xrotation Yrotation
                      JOINT rPinky2_End
                      {
                        OFFSET -0.8055 -1.585 0.7955
                        CHANNELS 3 Zrotation Xrotation Yrotation
                        End Site
                        {
                          OFFSET -0.0081 -0.0158 0.008
                        }
                      }
                    }
                  }
                }
              }
            }
          }
        }
      }
    }
  }
  JOINT lThigh
  {
    OFFSET 8.367 -8.2066 0.5982
    CHANNELS 3 Zrotation Xrotation Yrotation
    JOINT lShin
    {
      OFFSET 2.1923 -43.463 -0.4932
      CHANNELS 3 Zrotation Xrotation Yrotation
      JOINT lFoot
      {
        OFFSET 0.7333 -45.8593 -2.6451
        CHANNELS 3 Zrotation Xrotation Yrotation
        End Site
        {
          OFFSET 2.6618 -4.2699 12.3931
        }
      }
    }
  }
  JOINT rThigh
  {
    OFFSET -8.367 -8.2066 0.5982
    CHANNELS 3 Zrotation Xrotation Yrotation
    JOINT rShin
    {
      OFFSET -2.1923 -43.463 -0.4931
      CHANNELS 3 Zrotation Xrotation Yrotation
      JOINT rFoot
      {
        OFFSET -0.7333 -45.8593 -2.6451
        CHANNELS 3 Zrotation Xrotation Yrotation
        End Site
        {
          OFFSET -2.6618 -4.2699 12.3931
        }
      }
    }
  }
}
MOTION
Frames:	4
Frame Time:	0.0333333
17.1784 27.2695 18.5015 -0 -33.0001 -0 0 15.5992 -0 0 31.1985 -0 0 31.1985 -0 0 30.9995 -0 1.50934 -14.1736 22.3179 0 0 -0 -74.353 0.227797 10.7524 -2.42652 -1.58135 -125.22 -15.9332 -7.28794 7.42688 -9.54166e-015 3.18055e-015 -6.36111e-015 -9.54166e-015 0 -6.36111e-015 0 0 -3.18055e-015 -6.36111e-015 4.77083e-015 -3.18055e-015 -1.27222e-014 3.18055e-015 6.36111e-015 -6.36111e-015 0 -3.18055e-015 -9.54166e-015 0 -0 -1.27222e-014 3.18055e-015 6.36111e-015 -6.36111e-015 0 -3.18055e-015 -9.54166e-015 0 -0 -6.36111e-015 4.77083e-015 -3.18055e-015 -1.27222e-014 3.18055e-015 6.36111e-015 -6.36111e-015 0 -3.18055e-015 -9.54166e-015 0 -0 -1.27222e-014 3.18055e-015 6.36111e-015 -6.36111e-015 0 -3.18055e-015 -9.54166e-015 0 -0 -1.2866e-006 2.76963e-006 16.997 21.402 26.0651 24.8938 4.41649 0.0669629 46.9549 20.013 -2.35878 19.0501 -1.59028e-015 -6.36111e-015 4.96962e-016 4.13455e-006 2.3998e-006 -6.48955e-007 1.50875e-006 5.88539e-006 -2.82275e-006 -3.97569e-016 -3.18055e-015 1.98785e-016 -2.78299e-015 -3.18055e-015 9.93923e-016 4.13455e-006 2.3998e-006 -6.48955e-007 1.50875e-006 5.88539e-006 -2.82275e-006 -2.78299e-015 -3.18055e-015 9.93923e-016 4.13455e-006 2.3998e-006 -6.48955e-007 1.50875e-006 5.88539e-006 -2.82275e-006 -3.97569e-016 -3.18055e-015 1.98785e-016 -2.78299e-015 -3.18055e-015 9.93923e-016 4.13455e-006 2.3998e-006 -6.48955e-007 1.50875e-006 5.88539e-006 -2.82275e-006 -2.78299e-015 -3.18055e-015 9.93923e-016 4.13455e-006 2.3998e-006 -6.48955e-007 1.50875e-006 5.88539e-006 -2.82275e-006 27.4549 -26.2105 -2.92173 178.682 46.6379 -167.826 1.00222 57.9947 7.24315 -33.6847 -21.7596 4.39031 -178.891 47.873 169.712 -5.1766 31.0203 -4.69405 
17.2053 26.7692 18.5372 -0 -33.0001 -0 0 15.5992 -0 0 31.1985 -0 0 31.1985 -0 0 30.9998 -0 1.27175 -12.8935 22.6852 0 0 -0 -74.353 0.227797 10.7524 -2.42652 -1.58135 -125.22 -16.0567 -8.02842 7.82876 -1.50525e-006 1.81533e-006 2.32992e-006 -1.50525e-006 1.81533e-006 2.32992e-006 -1.50525e-006 1.81533e-006 2.32992e-006 -6.36111e-015 1.59028e-015 -0 -1.50525e-006 1.81533e-006 2.32992e-006 -1.50525e-006 1.81533e-006 2.32992e-006 -1.50525e-006 1.81533e-006 2.32992e-006 -1.50525e-006 1.81533e-006 2.32992e-006 -1.50525e-006 1.81533e-006 2.32992e-006 -1.50525e-006 1.81533e-006 2.32992e-006 -6.36111e-015 1.59028e-015 -0 -1.50525e-006 1.81533e-006 2.32992e-006 -1.50525e-006 1.81533e-006 2.32992e-006 -1.50525e-006 1.81533e-006 2.32992e-006 -1.50525e-006 1.81533e-006 2.32992e-006 -1.50525e-006 1.81533e-006 2.32992e-006 -1.50525e-006 1.81533e-006 2.32992e-006 -1.2866e-006 2.76963e-006 16.997 21.5435 26.1454 24.5722 3.03011 0.94931 43.0338 20.013 -2.35879 19.0501 -0 0 7.7526e-015 7.95139e-016 0 4.57205e-015 -2.86464e-006 -4.90198e-006 -7.42631e-007 -7.95139e-016 0 1.19271e-015 -3.18055e-015 -3.18055e-015 5.1684e-015 1.59028e-015 0 8.34896e-015 -2.86464e-006 -4.90198e-006 -7.42631e-007 -3.18055e-015 -3.18055e-015 5.1684e-015 1.59028e-015 0 8.34896e-015 -2.86464e-006 -4.90198e-006 -7.42631e-007 -7.95139e-016 0 1.19271e-015 -3.18055e-015 -3.18055e-015 5.1684e-015 1.59028e-015 0 8.34896e-015 -2.86464e-006 -4.90198e-006 -7.42631e-007 -3.18055e-015 -3.18055e-015 5.1684e-015 1.59028e-015 0 8.34896e-015 -2.86464e-006 -4.90198e-006 -7.42631e-007 28.9214 -26.7055 -1.83315 178.678 46.1825 -167.732 0.927992 58.0499 7.35168 -34.9748 -21.5647 4.05797 -178.89 47.8915 169.734 -5.16206 31.0852 -4.68245 
17.232 26.2677 18.5728 -0 -33.0001 -0 0 15.5992 -0 0 31.1985 -0 0 31.1985 -0 0 30.9996 -0 1.02842 -11.6226 23.0538 0 0 -0 -74.353 0.227797 10.7524 -2.42652 -1.58135 -125.22 -16.175 -8.7693 8.2295 6.36111e-015 1.59028e-015 -0 8.82781e-032 1.59028e-015 -3.18055e-015 -3.18055e-015 -1.59028e-015 3.18055e-015 6.36111e-015 1.59028e-015 -0 -3.18055e-015 1.43125e-014 6.36111e-015 3.18055e-015 -1.59028e-015 -0 0 1.59028e-015 -0 -3.18055e-015 1.43125e-014 6.36111e-015 3.18055e-015 -1.59028e-015 -0 0 1.59028e-015 -0 6.36111e-015 1.59028e-015 -0 -3.18055e-015 1.43125e-014 6.36111e-015 3.18055e-015 -1.59028e-015 -0 0 1.59028e-015 -0 -3.18055e-015 1.43125e-014 6.36111e-015 3.18055e-015 -1.59028e-015 -0 0 1.59028e-015 -0 -1.2866e-006 2.76963e-006 16.997 21.6856 26.2249 24.2502 1.70855 1.92275 39.1389 20.013 -2.35878 19.0501 -1.88854e-006 1.89303e-008 3.78614e-006 2.92649e-006 1.05943e-006 5.5848e-006 2.38542e-015 -9.54166e-015 -5.96354e-016 1.59028e-015 3.18055e-015 -5.56597e-015 -1.88854e-006 1.89303e-008 3.78614e-006 2.92649e-006 1.05943e-006 5.5848e-006 1.59028e-015 -9.54166e-015 -3.97569e-016 -1.88854e-006 1.89303e-008 3.78614e-006 2.92649e-006 1.05943e-006 5.5848e-006 1.59028e-015 -9.54166e-015 -3.97569e-016 1.59028e-015 3.18055e-015 -5.56597e-015 -1.88854e-006 1.89303e-008 3.78614e-006 2.92649e-006 1.05943e-006 5.5848e-006 1.59028e-015 -9.54166e-015 -3.97569e-016 -1.88854e-006 1.89303e-008 3.78614e-006 2.92649e-006 1.05943e-006 5.5848e-006 1.59028e-015 -9.54166e-015 -3.97569e-016 30.4052 -27.1812 -0.727267 178.674 45.7269 -167.637 0.851609 58.107 7.46139 -36.2615 -21.364 3.73222 -178.89 47.9099 169.755 -5.14732 31.1522 -4.67083 
17.2585 25.7649 18.6083 -0 -33.0001 -0 0 15.5992 -0 0 31.1985 -0 0 31.1985 -0 0 30.9998 -0 0.779436 -10.3613 23.424 0 0 -0 -74.353 0.227797 10.7524 -2.42652 -1.58135 -125.22 -16.2883 -9.51043 8.62925 1.36419e-005 -4.66783e-006 -9.98759e-007 1.77193e-005 -3.58168e-006 6.10123e-006 2.28616e-006 -4.16834e-006 -5.54511e-007 3.18055e-015 -3.18055e-015 6.36111e-015 1.36419e-005 -4.66783e-006 -9.98759e-007 1.77193e-005 -3.58168e-006 6.10123e-006 2.28616e-006 -4.16834e-006 -5.54511e-007 1.36419e-005 -4.66783e-006 -9.98759e-007 1.77193e-005 -3.58168e-006 6.10123e-006 2.28616e-006 -4.16834e-006 -5.54511e-007 3.18055e-015 -3.18055e-015 6.36111e-015 1.36419e-005 -4.66783e-006 -9.98759e-007 1.77193e-005 -3.58168e-006 6.10123e-006 2.28616e-006 -4.16834e-006 -5.54511e-007 1.36419e-005 -4.66783e-006 -9.98759e-007 1.77193e-005 -3.58168e-006 6.10123e-006 2.28616e-006 -4.16834e-006 -5.54511e-007 -1.2866e-006 2.76963e-006 16.997 21.8283 26.3036 23.9277 0.460259 2.9789 35.2805 20.013 -2.35878 19.0501 -7.95139e-016 -1.59028e-015 -2.18663e-015 -2.38542e-015 0 9.93923e-016 3.18055e-015 -1.59028e-015 3.97569e-015 -1.59028e-015 -1.59028e-015 -5.36719e-015 7.95139e-016 -1.59028e-015 7.35503e-015 1.59028e-015 0 3.77691e-015 2.38542e-015 -3.18055e-015 1.59028e-015 7.95139e-016 -1.59028e-015 7.35503e-015 1.59028e-015 0 3.77691e-015 2.38542e-015 -3.18055e-015 1.59028e-015 -1.59028e-015 -1.59028e-015 -5.36719e-015 7.95139e-016 -1.59028e-015 7.35503e-015 1.59028e-015 0 3.77691e-015 2.38542e-015 -3.18055e-015 1.59028e-015 7.95139e-016 -1.59028e-015 7.35503e-015 1.59028e-015 0 3.77691e-015 2.38542e-015 -3.18055e-015 1.59028e-015 31.906 -27.637 0.395288 178.669 45.2711 -167.543 0.773234 58.1663 7.57222 -37.5444 -21.1579 3.41321 -178.89 47.9281 169.776 -5.13248 31.2212 -4.65925 
